<svg width="20" height="20" viewBox="0 0 20 20" fill="none" xmlns="http://www.w3.org/2000/svg">
<g clip-path="url(#clip0_1_1490)">
<path d="M14.5097 0C12.4678 0 10.053 1.50788 8.59233 4.01391C8.19824 3.10857 6.7923 2.1226 5.12314 2.1226C3.77807 2.1226 0 3.80393 0 9.23291C0 16.2397 7.08901 17.6792 8.52233 19.8565C8.62123 20.0072 8.93772 20.1198 9.05945 19.7622C10.2021 16.3873 19.0699 12.5743 19.0699 5.70742C19.0699 1.85632 16.5547 0 14.5128 0H14.5097ZM16.6901 5.6846C16.6491 6.86838 16.2854 8.00043 15.73 9.07466C13.7413 12.9273 9.30898 16.0419 8.58928 18.1813C7.85893 16.7038 3.09488 14.6406 2.11194 10.511C1.99174 10.0089 1.92783 9.47484 1.93392 8.90881C1.98261 4.57081 4.24063 3.21356 5.46854 3.21356C7.18487 3.21356 7.89392 4.52364 8.01108 5.10488C8.12672 5.6846 8.77643 6.14868 8.98489 5.19769C9.19335 4.24671 11.214 1.34659 13.6957 1.34659C15.9689 1.34659 16.7571 3.69134 16.6886 5.68612L16.6901 5.6846Z" fill="white"/>
</g>
<defs>
<clipPath id="clip0_1_1490">
<rect width="19.0699" height="20" fill="white"/>
</clipPath>
</defs>
</svg>
