<svg width="46" height="48" viewBox="0 0 46 48" fill="none" xmlns="http://www.w3.org/2000/svg">
<g clip-path="url(#clip0_1_1647)">
<path d="M33.5284 2.45873C26.8406 1.68346 20.3532 11.4823 20.3532 11.4823C18.753 9.2346 16.0715 7.09503 11.9537 7.2966C4.09802 7.68114 1.48664 24.548 4.78164 25.5171L38.0537 22.129C43.2129 20.0669 42.281 3.47356 33.5284 2.45873Z" fill="#0056B9"/>
<path d="M20.6179 44.6364C31.5342 31.609 38.8732 22.1863 37.7557 21.7792L5.07232 25.2265C4.07757 26.2431 6.55458 32.3142 20.6179 44.6364Z" fill="#FFD800"/>
<path d="M34.8233 0C29.9227 0 24.1273 3.61891 20.6216 9.63339C19.6758 7.46058 16.3015 5.09423 12.2955 5.09423C9.06736 5.09423 0 9.12944 0 22.159C0 38.9754 17.0136 42.43 20.4536 47.6557C20.691 48.0172 21.4505 48.2874 21.7427 47.4293C24.4852 39.3296 45.7677 30.1783 45.7677 13.6978C45.7677 4.45517 39.7313 0 34.8306 0H34.8233ZM40.0563 13.643C39.9577 16.4841 39.085 19.201 37.7521 21.7792C32.9792 31.0255 22.3416 38.5007 20.6143 43.6351C18.8614 40.0892 7.42771 35.1374 5.06867 25.2265C4.78018 24.0214 4.6268 22.7396 4.64141 21.3811C4.75827 10.9699 10.1775 7.71255 13.1245 7.71255C17.2437 7.71255 18.9454 10.8567 19.2266 12.2517C19.5041 13.643 21.0634 14.7568 21.5637 12.4745C22.064 10.1921 26.9136 3.23182 32.8696 3.23182C38.3254 3.23182 40.217 8.85921 40.0527 13.6467L40.0563 13.643Z" fill="white"/>
</g>
<defs>
<clipPath id="clip0_1_1647">
<rect width="45.7677" height="48" fill="white"/>
</clipPath>
</defs>
</svg>
