<svg width="46" height="48" viewBox="0 0 46 48" fill="none" xmlns="http://www.w3.org/2000/svg">
<g clip-path="url(#clip0_1_1658)">
<path d="M33.3451 2.2915C27.389 2.2915 21.3687 9.66152 20.8684 11.9439C20.3681 14.2262 19.9796 13.6394 19.7021 12.2481C19.4245 10.8567 16.9033 7.00631 12.7805 7.00631C10.2023 7.00631 5.09606 10.5471 3.93479 18.1209L41.9699 14.6666C41.9808 14.5206 41.3443 14.3161 41.348 14.17C41.5123 9.38252 38.8008 2.2915 33.3451 2.2915Z" fill="#0B0E0E"/>
<path d="M20.9692 45.5669C24.1828 41.2859 30.3988 34.486 35.3105 28.7052L6.72694 31.4703C11.0251 37.116 17.6169 42.9303 20.9692 45.5669Z" fill="#FFCC01"/>
<path d="M3.64995 19.6214C3.38666 19.9216 3.94173 31.2647 8.36622 31.9385L32.4424 29.4078C33.9027 29.6306 36.612 25.5986 38.7191 21.8008C39.2602 20.8254 41.7398 14.4972 40.0344 14.0813L4.92625 17.7696C4.75827 18.8651 3.66456 18.3068 3.64995 19.6214Z" fill="#FF0000"/>
<path d="M34.8233 0C29.9227 0 24.1273 3.61891 20.6216 9.63339C19.6758 7.46058 16.3015 5.09423 12.2955 5.09423C9.06736 5.09423 0 9.12944 0 22.159C0 38.9754 17.0136 42.43 20.4536 47.6557C20.691 48.0172 21.4505 48.2874 21.7427 47.4293C24.4852 39.3296 45.7677 30.1783 45.7677 13.6978C45.7677 4.45517 39.7313 0 34.8306 0H34.8233ZM40.0563 13.643C40.0527 13.7891 40.0417 13.9352 40.0344 14.0812C39.6802 19.7232 36.3023 24.8649 32.4424 29.4078C27.5307 35.1885 21.8413 39.9979 20.6179 43.6351C19.3142 40.9985 12.668 37.5877 8.36622 31.9384C6.17515 29.0608 4.59759 25.6062 4.64506 21.3811C4.65967 20.0665 4.75827 18.8651 4.92625 17.7732C6.09116 10.2031 10.55 7.71255 13.1281 7.71255C17.2473 7.71255 18.9491 10.8567 19.2303 12.2517C19.5078 13.643 21.0671 14.7568 21.5674 12.4745C22.0677 10.1921 26.9172 3.23182 32.8733 3.23182C38.329 3.23182 40.2207 8.85921 40.0563 13.6467V13.643Z" fill="white"/>
</g>
<defs>
<clipPath id="clip0_1_1658">
<rect width="45.7677" height="48" fill="white"/>
</clipPath>
</defs>
</svg>
