<svg width="46" height="48" viewBox="0 0 46 48" fill="none" xmlns="http://www.w3.org/2000/svg">
<g clip-path="url(#clip0_1_1638)">
<path d="M19.3241 11.2818C15.2809 2.19803 3.14601 8.72996 4.25907 20.3426C3.57107 31.4718 10.1928 36.9509 20.3922 44.097C20.7432 44.292 35.7819 26.7445 39.3106 20.0742C42.5717 20.0125 40.102 3.53896 37.0969 3.62624C32.0608 -0.203746 22.0673 6.71564 21.5458 10.3251L19.3241 11.2818Z" fill="#006AA7"/>
<path d="M22.5205 10.0059C22.0093 10.8531 21.6806 11.5981 21.5674 12.1057C21.0671 14.388 19.5078 13.2742 19.2303 11.8829C19.0294 10.8823 18.0946 8.99071 16.0642 7.99377V20.775L4.65237 21.9764C3.69743 22.1408 4.86636 28.584 6.13864 28.2794L16.0678 27.235V39.6401C18.2297 41.3637 20.0117 42.7696 20.6216 44.0003C20.9576 43.007 21.6258 41.9224 22.5242 40.7539V26.5558L35.718 25.1681C36.3147 25.3722 40.1378 18.4466 39.2091 18.3429L22.5242 20.0958V10.0059H22.5205Z" fill="#FFCD00"/>
<path d="M34.8233 0C29.9227 0 24.1273 3.61891 20.6216 9.63339C19.6758 7.46058 16.3015 5.09423 12.2955 5.09423C9.06736 5.09423 0 9.12944 0 22.159C0 38.9754 17.0136 42.43 20.4536 47.6557C20.691 48.0172 21.4505 48.2874 21.7427 47.4293C24.4852 39.3296 45.7677 30.1783 45.7677 13.6978C45.7677 4.45517 39.7313 0 34.8306 0H34.8233ZM40.0563 13.643C40.0016 15.2498 39.6948 16.8201 39.2018 18.3465C38.4313 20.7275 37.1933 23.0062 35.7107 25.1717C31.6171 31.1606 25.6683 36.295 22.5169 40.3923C21.6185 41.5609 20.9502 42.6418 20.6143 43.6387C20.0044 42.4044 18.2224 41.0021 16.0605 39.2785C12.679 36.5835 8.36622 33.1107 6.13134 28.283C5.25856 26.3987 4.70349 24.3099 4.64506 21.98C4.64141 21.7828 4.63776 21.5856 4.64141 21.3848C4.75827 10.9736 10.1775 7.7162 13.1245 7.7162C14.2894 7.7162 15.2571 7.97183 16.0569 8.36622C18.0873 9.36315 19.0258 11.2548 19.2229 12.2554C19.5005 13.6467 21.0598 14.7605 21.5601 12.4781C21.6733 11.9669 22.002 11.2256 22.5132 10.3783C24.2843 7.43502 28.2428 3.23547 32.8696 3.23547C38.3254 3.23547 40.217 8.86286 40.0527 13.6503L40.0563 13.643Z" fill="white"/>
</g>
<defs>
<clipPath id="clip0_1_1638">
<rect width="45.7677" height="48" fill="white"/>
</clipPath>
</defs>
</svg>
