<svg width="46" height="48" viewBox="0 0 46 48" fill="none" xmlns="http://www.w3.org/2000/svg">
<g clip-path="url(#clip0_1_1670)">
<path d="M40.5092 14.1513C40.7067 -6.57942 20.3356 6.51073 20.294 11.7178C18.3699 4.72063 4.28938 5.35056 4.52492 18.0164L40.5092 14.1513Z" fill="#EF3340"/>
<path d="M20.7395 44.1653C20.7395 44.1653 28.1563 34.9238 33.0789 29.1211L7.80677 31.7179C12.1049 37.3927 20.7395 44.1653 20.7395 44.1653Z" fill="#00A3E0"/>
<path d="M4.93355 17.7221C2.3313 20.9065 4.90726 30.1918 8.33335 31.8946L32.4862 29.3567C36.7318 25.0019 40.9379 20.0928 40.0344 14.0338L4.93355 17.7221Z" fill="white"/>
<path d="M34.8233 0C29.9227 0 24.1273 3.61891 20.6216 9.63339C19.6758 7.46058 16.3015 5.09423 12.2955 5.09423C9.06736 5.09423 0 9.12944 0 22.159C0 38.9754 17.0136 42.43 20.4536 47.6557C20.691 48.0172 21.4505 48.2874 21.7427 47.4293C24.4852 39.3296 45.7677 30.1783 45.7677 13.6978C45.7677 4.45517 39.7313 0 34.8306 0H34.8233ZM40.0563 13.643C40.0527 13.7745 40.0417 13.906 40.0344 14.0338C39.6985 19.6721 36.3388 24.8138 32.4862 29.3566C27.5636 35.1593 21.8413 39.9906 20.6143 43.6351C19.3069 40.9912 12.6278 37.5695 8.32971 31.8946C6.1569 29.028 4.59394 25.588 4.64141 21.3811C4.65602 20.0446 4.75827 18.8322 4.93355 17.7221C6.10943 10.1885 10.5536 7.7089 13.1281 7.7089C17.2473 7.7089 18.9491 10.8531 19.2303 12.2481C19.5078 13.6394 21.0671 14.7532 21.5674 12.4708C22.0677 10.1885 26.9172 3.22817 32.8733 3.22817C38.329 3.22817 40.2207 8.85556 40.0563 13.643Z" fill="white"/>
</g>
<defs>
<clipPath id="clip0_1_1670">
<rect width="45.7677" height="48" fill="white"/>
</clipPath>
</defs>
</svg>
